<svg width="210" height="210" viewBox="0 0 210 210" fill="none" xmlns="http://www.w3.org/2000/svg">
<path d="M107.198 153.694C104.424 153.694 101.71 152.962 99.2937 151.448C95.0993 148.819 92.3343 144.182 91.5175 138.388C90.6923 132.569 91.7643 125.746 94.708 118.097C99.1746 106.475 108.082 98.8607 117.968 98.2227C118.258 98.2056 118.538 98.1886 118.828 98.1886C124.273 98.061 129.437 100.63 132.653 105.063C135.937 109.589 136.788 115.434 134.925 120.692C130.569 133.011 125.796 142.013 120.734 147.424C116.905 151.524 111.97 153.685 107.198 153.685V153.694ZM119.228 109.538C119.185 109.538 119.143 109.538 119.1 109.538C118.964 109.538 118.828 109.547 118.692 109.555C114.65 109.81 108.72 113.273 105.3 122.164C101.123 133.054 102.374 139.988 105.317 141.825C107.249 143.034 110.116 142.166 112.438 139.673C116.318 135.53 120.495 127.439 124.213 116.906C124.834 115.136 124.562 113.248 123.456 111.716C122.444 110.312 120.904 109.521 119.219 109.521L119.228 109.538Z" fill="#7F7BFF"/>
<path d="M17.7541 155.863C16.9629 153.872 -1.43112 106.781 20.7659 78.2713C26.7639 70.5717 34.1317 65.5435 42.0611 63.7399C49.3438 62.0808 56.669 63.2294 62.6926 66.9728C73.5316 73.7111 77.0539 86.7962 71.2515 98.8007C71.0728 99.1751 70.8857 99.5494 70.69 99.9153C72.0342 101.03 73.3104 102.28 74.4845 103.667C79.5807 109.716 81.6907 117.407 80.5846 125.907C80.0486 129.991 78.798 133.479 77.1049 136.457C79.0872 138.073 80.9505 139.536 82.4734 140.243C83.7581 140.838 84.5833 140.659 85.1534 140.43C86.1828 140.03 88.8713 138.379 91.6959 131.641L102.161 136.031C98.8425 143.935 94.5035 148.972 89.2541 151.013C85.5107 152.468 81.512 152.307 77.7005 150.546C74.8503 149.227 72.315 147.21 69.6605 145.049C64.5048 149.21 58.779 151.481 55.3503 152.834C48.3654 155.599 40.6913 154.621 35.7993 150.35C32.294 147.287 30.8137 142.974 31.8431 138.813C32.847 134.755 36.5139 129.335 48.2973 126.528C56.2607 124.631 62.6501 126.647 67.8824 129.701C68.6481 128.025 69.0735 126.281 69.3117 124.452C70.0179 119.049 68.8608 114.651 65.7895 111.001C65.2535 110.363 64.6664 109.759 64.0454 109.197C61.8588 111.469 59.4171 113.468 56.7541 115.136C51.0964 118.692 44.8006 120.445 39.4832 119.96C29.512 119.041 26.3811 112.66 26.7214 107.479C27.0021 103.242 29.4949 98.9879 33.5617 95.806C37.6795 92.5815 42.8438 90.931 48.0846 91.1437C51.0028 91.2628 55.8268 92.0965 60.8889 94.164C60.9315 94.0704 60.9825 93.9768 61.0251 93.8832C63.5179 88.7189 63.8837 81.1044 56.6946 76.6378C49.9053 72.4179 38.9302 73.4473 29.7247 85.2732C11.5263 108.636 28.1252 151.269 28.2953 151.694L17.7541 155.897V155.863ZM42.9203 141.408C43.065 141.621 43.4648 142.055 44.3156 142.438C45.2175 142.846 47.6933 143.654 51.1815 142.267C54.5676 140.923 57.3327 139.579 59.5872 138.201C56.9753 137.154 54.1592 136.78 50.9347 137.546C45.2345 138.898 43.2862 140.77 42.9289 141.4L42.9203 141.408ZM38.0709 108.04C38.3771 108.21 39.0918 108.508 40.5211 108.636C43.7201 108.925 48.8163 107.36 53.4786 103.523C51.224 102.859 49.1481 102.519 47.6167 102.451C44.5964 102.323 41.5931 103.506 39.5682 105.599C38.5643 106.636 38.1559 107.572 38.0624 108.032L38.0709 108.04Z" fill="#7F7BFF"/>
<path d="M134.32 153.924C130.934 153.924 126.799 152.715 122.034 149.057C117.295 145.416 115.636 143.391 115.066 142.515L124.604 136.355C124.604 136.355 124.561 136.261 124.417 136.091C124.425 136.1 125.446 137.359 128.951 140.056C130.551 141.289 133.52 143.221 135.4 142.327C137.919 141.145 140.309 135.581 140.913 129.855C139.714 119.509 143.848 109.572 152.297 102.528C156.287 99.201 162.421 96.6316 169.117 95.4746C173.379 94.7429 181.351 94.0367 186.881 97.5845C191.322 100.435 193.1 105.395 191.629 110.848C189.655 118.157 181.572 124.061 166.93 128.902C161.758 130.612 156.746 131.863 153.131 132.662C154.339 136.057 156.457 138.788 158.933 139.92C161.451 141.077 166.547 142.855 172.401 141.791C180.024 140.405 186.6 134.543 191.952 124.384L201.991 129.676C194.93 143.076 185.656 150.912 174.434 152.962C165.527 154.587 157.929 151.958 154.194 150.24C151.803 149.142 149.608 147.475 147.72 145.39C145.907 148.453 143.466 151.082 140.233 152.605C138.65 153.345 136.668 153.932 134.311 153.932L134.32 153.924ZM175.813 106.22C174.732 106.22 173.473 106.297 172.052 106.501C167.169 107.19 162.149 109.096 159.571 111.248C155.742 114.439 153.777 117.918 152.833 121.083C155.913 120.352 159.682 119.348 163.493 118.088C175.2 114.2 180.066 110.168 180.688 107.888C180.781 107.53 180.807 107.292 180.815 107.156C180.271 106.756 178.612 106.229 175.821 106.229L175.813 106.22Z" fill="#7F7BFF"/>
</svg>
